Coordinates
version=1
nRows=21
nColumns=12
inDegrees=yes

Units are S.I. units (second, meters, Newtons, ...)
Angles are in degrees

endheader
time	SC_y	SC_z	SC_x	AC_y	AC_z	AC_x	GH_y	GH_z	GH_yy	EL_x	PS_y
       0.0              -55.64         -3.145          44.57          33.58         0.5382         -4.021         -102.1          47.57         -143.9          133.8          89.09
   0.02958              -55.64          -3.14          44.56          33.58         0.5372         -4.022         -102.1          47.57         -143.9          133.8           89.1
   0.05916              -55.64         -3.135          44.56          33.59         0.5362         -4.024         -102.1          47.56         -143.9          133.8           89.1
   0.08873              -55.64          -3.13          44.55          33.59         0.5352         -4.025         -102.1          47.56         -143.9          133.8          89.11
    0.1183              -55.64         -3.124          44.54           33.6          0.534         -4.027         -102.1          47.55         -143.9          133.8          89.12
    0.1479              -55.64         -3.117          44.53           33.6         0.5328         -4.029         -102.1          47.55         -143.9          133.8          89.12
    0.1775              -55.64         -3.111          44.52          33.61         0.5315          -4.03         -102.2          47.54         -143.8          133.9          89.13
     0.207              -55.64         -3.103          44.51          33.61         0.5301         -4.032         -102.2          47.54         -143.8          133.9          89.14
    0.2366              -55.63         -3.096           44.5          33.62         0.5286         -4.034         -102.2          47.53         -143.8          133.9          89.15
    0.2662              -55.63         -3.087          44.49          33.63          0.527         -4.037         -102.2          47.52         -143.8          133.9          89.16
    0.2958              -55.63         -3.079          44.48          33.63         0.5253         -4.039         -102.2          47.52         -143.8          133.9          89.17
    0.3254              -55.63         -3.069          44.47          33.64         0.5234         -4.042         -102.2          47.51         -143.8          133.9          89.18
    0.3549              -55.63         -3.059          44.46          33.65         0.5215         -4.044         -102.2           47.5         -143.8          133.9          89.19
    0.3845              -55.63         -3.048          44.44          33.66         0.5193         -4.047         -102.2          47.49         -143.7          133.9          89.21
    0.4141              -55.62         -3.035          44.42          33.67          0.517         -4.051         -102.2          47.48         -143.7          133.9          89.22
    0.4437              -55.62         -3.022          44.41          33.68         0.5144         -4.054         -102.2          47.47         -143.7          133.9          89.24
    0.4732              -55.62         -3.008          44.39          33.69         0.5117         -4.058         -102.2          47.46         -143.7          133.9          89.25
    0.5028              -55.62         -2.993          44.37           33.7         0.5087         -4.062         -102.2          47.44         -143.7          133.9          89.27
    0.5324              -55.61         -2.976          44.35          33.72         0.5054         -4.067         -102.2          47.43         -143.6          133.9          89.29
     0.562              -55.61         -2.957          44.32          33.73         0.5019         -4.072         -102.2          47.41         -143.6          133.9          89.31
    0.5916              -55.61         -2.937           44.3          33.75         0.4979         -4.077         -102.2           47.4         -143.6          133.9          89.34
